<?xml version="1.0" encoding="UTF-8" standalone="no"?><svg xmlns="http://www.w3.org/2000/svg" xmlns:xlink="http://www.w3.org/1999/xlink" contentScriptType="application/ecmascript" contentStyleType="text/css" height="820px" preserveAspectRatio="none" style="width:1975px;height:820px;" version="1.1" viewBox="0 0 1975 820" width="1975px" zoomAndPan="magnify"><defs><filter height="300%" id="f87my86ptais3" width="300%" x="-1" y="-1"><feGaussianBlur result="blurOut" stdDeviation="2.0"/><feColorMatrix in="blurOut" result="blurOut2" type="matrix" values="0 0 0 0 0 0 0 0 0 0 0 0 0 0 0 0 0 0 .4 0"/><feOffset dx="4.0" dy="4.0" in="blurOut2" result="blurOut3"/><feBlend in="SourceGraphic" in2="blurOut3" mode="normal"/></filter></defs><g><rect fill="#FEFECE" filter="url(#f87my86ptais3)" height="50" rx="12.5" ry="12.5" style="stroke: #A80036; stroke-width: 1.5;" width="50" x="637" y="761"/><line style="stroke: #A80036; stroke-width: 1.5;" x1="637" x2="687" y1="787.2969" y2="787.2969"/><text fill="#000000" font-family="sans-serif" font-size="14" lengthAdjust="spacingAndGlyphs" textLength="23" x="650.5" y="778.9951">Die</text><rect fill="#FEFECE" filter="url(#f87my86ptais3)" height="264.2969" rx="12.5" ry="12.5" style="stroke: #A80036; stroke-width: 1.5;" width="276" x="1353" y="214"/><rect fill="#FFFFFF" height="232" rx="12.5" ry="12.5" style="stroke: #FFFFFF; stroke-width: 1.0;" width="270" x="1356" y="243.2969"/><line style="stroke: #A80036; stroke-width: 1.5;" x1="1353" x2="1629" y1="240.2969" y2="240.2969"/><text fill="#000000" font-family="sans-serif" font-size="14" lengthAdjust="spacingAndGlyphs" textLength="41" x="1470.5" y="231.9951">JobsAI</text><ellipse cx="1421.4762" cy="263.2969" fill="#000000" filter="url(#f87my86ptais3)" rx="10" ry="10" style="stroke: none; stroke-width: 1.0;"/><rect fill="#FEFECE" filter="url(#f87my86ptais3)" height="50" rx="12.5" ry="12.5" style="stroke: #A80036; stroke-width: 1.5;" width="107" x="1367.9763" y="310.2969"/><line style="stroke: #A80036; stroke-width: 1.5;" x1="1367.9763" x2="1474.9763" y1="336.5938" y2="336.5938"/><text fill="#000000" font-family="sans-serif" font-size="14" lengthAdjust="spacingAndGlyphs" textLength="87" x="1377.9763" y="328.292">Unemployed</text><rect fill="#FEFECE" filter="url(#f87my86ptais3)" height="50" rx="12.5" ry="12.5" style="stroke: #A80036; stroke-width: 1.5;" width="67" x="1387.9762" y="413.2969"/><line style="stroke: #A80036; stroke-width: 1.5;" x1="1387.9762" x2="1454.9762" y1="439.5938" y2="439.5938"/><text fill="#000000" font-family="sans-serif" font-size="14" lengthAdjust="spacingAndGlyphs" textLength="47" x="1397.9762" y="431.292">HasJob</text><!--link *start*JobsAI to Unemployed--><path d="M1421.4762,273.4479 C1421.4762,281.4829 1421.4762,293.6229 1421.4762,304.9509 " fill="none" id="*start*JobsAI-Unemployed" style="stroke: #A80036; stroke-width: 1.0;"/><polygon fill="#A80036" points="1421.4762,310.0809,1425.4762,301.0809,1421.4762,305.0809,1417.4762,301.0809,1421.4762,310.0809" style="stroke: #A80036; stroke-width: 1.0;"/><!--link Unemployed to Unemployed--><path d="M1475.108,327.7719 C1485.557,328.6459 1492.976,331.1539 1492.976,335.2969 C1492.976,338.7279 1487.888,341.0369 1480.205,342.2259 " fill="none" id="Unemployed-Unemployed" style="stroke: #A80036; stroke-width: 1.0;"/><polygon fill="#A80036" points="1475.108,342.8219,1484.5112,345.7511,1480.0743,342.242,1483.5833,337.8051,1475.108,342.8219" style="stroke: #A80036; stroke-width: 1.0;"/><text fill="#000000" font-family="sans-serif" font-size="13" lengthAdjust="spacingAndGlyphs" textLength="91" x="1498.976" y="339.8638">seachJob:false</text><!--link Unemployed to HasJob--><path d="M1380.5513,360.3499 C1374.8668,365.5234 1369.8318,371.5123 1366.4763,378.2969 C1359.331,392.7436 1369.7276,406.1257 1383.337,416.4804 " fill="none" id="Unemployed-HasJob" style="stroke: #A80036; stroke-width: 1.0;"/><polygon fill="#A80036" points="1387.648,419.5946,1382.6948,411.0819,1383.5949,416.6667,1378.0102,417.5668,1387.648,419.5946" style="stroke: #A80036; stroke-width: 1.0;"/><text fill="#000000" font-family="sans-serif" font-size="13" lengthAdjust="spacingAndGlyphs" textLength="87" x="1367.4763" y="391.3638">seachJob:true</text><!--link HasJob to Unemployed--><path d="M1446.4876,413.2927 C1454.2513,402.9435 1459.7768,390.4442 1455.4762,378.2969 C1453.7856,373.5214 1451.2953,368.8917 1448.4181,364.559 " fill="none" id="HasJob-Unemployed" style="stroke: #A80036; stroke-width: 1.0;"/><polygon fill="#A80036" points="1445.4271,360.3309,1447.3591,369.9884,1448.3146,364.4128,1453.8902,365.3683,1445.4271,360.3309" style="stroke: #A80036; stroke-width: 1.0;"/><text fill="#000000" font-family="sans-serif" font-size="13" lengthAdjust="spacingAndGlyphs" textLength="85" x="1457.4762" y="391.3638">jobDestroyed</text><rect fill="#FEFECE" filter="url(#f87my86ptais3)" height="264.2969" rx="12.5" ry="12.5" style="stroke: #A80036; stroke-width: 1.5;" width="304" x="1664" y="214"/><rect fill="#FFFFFF" height="232" rx="12.5" ry="12.5" style="stroke: #FFFFFF; stroke-width: 1.0;" width="298" x="1667" y="243.2969"/><line style="stroke: #A80036; stroke-width: 1.5;" x1="1664" x2="1968" y1="240.2969" y2="240.2969"/><text fill="#000000" font-family="sans-serif" font-size="14" lengthAdjust="spacingAndGlyphs" textLength="53" x="1789.5" y="231.9951">HomeAI</text><ellipse cx="1744.9201" cy="263.2969" fill="#000000" filter="url(#f87my86ptais3)" rx="10" ry="10" style="stroke: none; stroke-width: 1.0;"/><rect fill="#FEFECE" filter="url(#f87my86ptais3)" height="50" rx="12.5" ry="12.5" style="stroke: #A80036; stroke-width: 1.5;" width="89" x="1700.4201" y="310.2969"/><line style="stroke: #A80036; stroke-width: 1.5;" x1="1700.4201" x2="1789.4201" y1="336.5938" y2="336.5938"/><text fill="#000000" font-family="sans-serif" font-size="14" lengthAdjust="spacingAndGlyphs" textLength="69" x="1710.4201" y="328.292">Homeless</text><rect fill="#FEFECE" filter="url(#f87my86ptais3)" height="50" rx="12.5" ry="12.5" style="stroke: #A80036; stroke-width: 1.5;" width="87" x="1701.4201" y="413.2969"/><line style="stroke: #A80036; stroke-width: 1.5;" x1="1701.4201" x2="1788.4201" y1="439.5938" y2="439.5938"/><text fill="#000000" font-family="sans-serif" font-size="14" lengthAdjust="spacingAndGlyphs" textLength="67" x="1711.4201" y="431.292">HasHome</text><!--link *start*HomeAI to Homeless--><path d="M1744.9201,273.4479 C1744.9201,281.4829 1744.9201,293.6229 1744.9201,304.9509 " fill="none" id="*start*HomeAI-Homeless" style="stroke: #A80036; stroke-width: 1.0;"/><polygon fill="#A80036" points="1744.9201,310.0809,1748.9201,301.0809,1744.9201,305.0809,1740.9201,301.0809,1744.9201,310.0809" style="stroke: #A80036; stroke-width: 1.0;"/><!--link Homeless to Homeless--><path d="M1789.583,327.5959 C1799.866,328.2589 1807.42,330.8259 1807.42,335.2969 C1807.42,338.9989 1802.24,341.3959 1794.619,342.4879 " fill="none" id="Homeless-Homeless" style="stroke: #A80036; stroke-width: 1.0;"/><polygon fill="#A80036" points="1789.583,342.9979,1798.9406,346.0697,1794.5575,342.4936,1798.1337,338.1105,1789.583,342.9979" style="stroke: #A80036; stroke-width: 1.0;"/><text fill="#000000" font-family="sans-serif" font-size="13" lengthAdjust="spacingAndGlyphs" textLength="116" x="1813.42" y="339.8638">searchHome:false</text><!--link Homeless to HasHome--><path d="M1700.3094,355.3869 C1691.35,361.3689 1683.1048,368.9276 1677.9201,378.2969 C1669.6202,393.2958 1680.998,406.3473 1696.5997,416.3344 " fill="none" id="Homeless-HasHome" style="stroke: #A80036; stroke-width: 1.0;"/><polygon fill="#A80036" points="1701.0993,419.0691,1695.4858,410.9766,1696.8265,416.4723,1691.3309,417.813,1701.0993,419.0691" style="stroke: #A80036; stroke-width: 1.0;"/><text fill="#000000" font-family="sans-serif" font-size="13" lengthAdjust="spacingAndGlyphs" textLength="112" x="1678.9201" y="391.3638">searchHome:true</text><!--link HasHome to Homeless--><path d="M1780.548,413.0317 C1790.639,403.029 1797.537,390.8482 1791.92,378.2969 C1789.662,373.2496 1786.463,368.5584 1782.785,364.2794 " fill="none" id="HasHome-Homeless" style="stroke: #A80036; stroke-width: 1.0;"/><polygon fill="#A80036" points="1779.284,360.4669,1782.4242,369.8017,1782.6655,364.15,1788.3172,364.3913,1779.284,360.4669" style="stroke: #A80036; stroke-width: 1.0;"/><text fill="#000000" font-family="sans-serif" font-size="13" lengthAdjust="spacingAndGlyphs" textLength="103" x="1794.92" y="391.3638">homeDestroyed</text><rect fill="#FEFECE" filter="url(#f87my86ptais3)" height="676.2969" rx="12.5" ry="12.5" style="stroke: #A80036; stroke-width: 1.5;" width="1312" x="6" y="8"/><rect fill="#FFFFFF" height="644" rx="12.5" ry="12.5" style="stroke: #FFFFFF; stroke-width: 1.0;" width="1306" x="9" y="37.2969"/><line style="stroke: #A80036; stroke-width: 1.5;" x1="6" x2="1318" y1="34.2969" y2="34.2969"/><text fill="#000000" font-family="sans-serif" font-size="14" lengthAdjust="spacingAndGlyphs" textLength="38" x="643" y="25.9951">DayAI</text><ellipse cx="428.754" cy="57.2969" fill="#000000" filter="url(#f87my86ptais3)" rx="10" ry="10" style="stroke: none; stroke-width: 1.0;"/><rect fill="#FEFECE" filter="url(#f87my86ptais3)" height="50" rx="12.5" ry="12.5" style="stroke: #A80036; stroke-width: 1.5;" width="50" x="403.754" y="104.2969"/><line style="stroke: #A80036; stroke-width: 1.5;" x1="403.754" x2="453.754" y1="130.5938" y2="130.5938"/><text fill="#000000" font-family="sans-serif" font-size="14" lengthAdjust="spacingAndGlyphs" textLength="24" x="416.754" y="122.292">Idle</text><rect fill="#FEFECE" filter="url(#f87my86ptais3)" height="50" rx="12.5" ry="12.5" style="stroke: #A80036; stroke-width: 1.5;" width="93" x="474.254" y="207.2969"/><line style="stroke: #A80036; stroke-width: 1.5;" x1="474.254" x2="567.254" y1="233.5938" y2="233.5938"/><text fill="#000000" font-family="sans-serif" font-size="14" lengthAdjust="spacingAndGlyphs" textLength="73" x="484.254" y="225.292">WalkHome</text><rect fill="#FEFECE" filter="url(#f87my86ptais3)" height="50" rx="12.5" ry="12.5" style="stroke: #A80036; stroke-width: 1.5;" width="87" x="389.254" y="413.2969"/><line style="stroke: #A80036; stroke-width: 1.5;" x1="389.254" x2="476.254" y1="439.5938" y2="439.5938"/><text fill="#000000" font-family="sans-serif" font-size="14" lengthAdjust="spacingAndGlyphs" textLength="67" x="399.254" y="431.292">WalkWork</text><rect fill="#FEFECE" filter="url(#f87my86ptais3)" height="50" rx="12.5" ry="12.5" style="stroke: #A80036; stroke-width: 1.5;" width="75" x="616.254" y="310.2969"/><line style="stroke: #A80036; stroke-width: 1.5;" x1="616.254" x2="691.254" y1="336.5938" y2="336.5938"/><text fill="#000000" font-family="sans-serif" font-size="14" lengthAdjust="spacingAndGlyphs" textLength="55" x="626.254" y="328.292">AtHome</text><rect fill="#FEFECE" filter="url(#f87my86ptais3)" height="50" rx="12.5" ry="12.5" style="stroke: #A80036; stroke-width: 1.5;" width="104" x="831.754" y="413.2969"/><line style="stroke: #A80036; stroke-width: 1.5;" x1="831.754" x2="935.754" y1="439.5938" y2="439.5938"/><text fill="#000000" font-family="sans-serif" font-size="14" lengthAdjust="spacingAndGlyphs" textLength="84" x="841.754" y="431.292">GetSupplies</text><rect fill="#FEFECE" filter="url(#f87my86ptais3)" height="50" rx="12.5" ry="12.5" style="stroke: #A80036; stroke-width: 1.5;" width="105" x="1011.254" y="516.2969"/><line style="stroke: #A80036; stroke-width: 1.5;" x1="1011.254" x2="1116.254" y1="542.5938" y2="542.5938"/><text fill="#000000" font-family="sans-serif" font-size="14" lengthAdjust="spacingAndGlyphs" textLength="85" x="1021.254" y="534.292">BuySupplies</text><rect fill="#FEFECE" filter="url(#f87my86ptais3)" height="50" rx="12.5" ry="12.5" style="stroke: #A80036; stroke-width: 1.5;" width="69" x="605.254" y="516.2969"/><line style="stroke: #A80036; stroke-width: 1.5;" x1="605.254" x2="674.254" y1="542.5938" y2="542.5938"/><text fill="#000000" font-family="sans-serif" font-size="14" lengthAdjust="spacingAndGlyphs" textLength="49" x="615.254" y="534.292">AtWork</text><rect fill="#FEFECE" filter="url(#f87my86ptais3)" height="50" rx="12.5" ry="12.5" style="stroke: #A80036; stroke-width: 1.5;" width="76" x="454.754" y="619.2969"/><line style="stroke: #A80036; stroke-width: 1.5;" x1="454.754" x2="530.754" y1="645.5938" y2="645.5938"/><text fill="#000000" font-family="sans-serif" font-size="14" lengthAdjust="spacingAndGlyphs" textLength="56" x="464.754" y="637.292">Working</text><!--link *start*DayAI to Idle--><path d="M428.754,67.4479 C428.754,75.4829 428.754,87.6229 428.754,98.9509 " fill="none" id="*start*DayAI-Idle" style="stroke: #A80036; stroke-width: 1.0;"/><polygon fill="#A80036" points="428.754,104.0809,432.754,95.0809,428.754,99.0809,424.754,95.0809,428.754,104.0809" style="stroke: #A80036; stroke-width: 1.0;"/><!--link Idle to WalkHome--><path d="M454.034,140.3479 C468.832,147.3579 486.884,158.0209 498.754,172.2969 C505.902,180.8929 510.849,192.0369 514.214,202.3209 " fill="none" id="Idle-WalkHome" style="stroke: #A80036; stroke-width: 1.0;"/><polygon fill="#A80036" points="515.742,207.2849,516.919,197.5066,514.2719,202.5059,509.2726,199.8588,515.742,207.2849" style="stroke: #A80036; stroke-width: 1.0;"/><text fill="#000000" font-family="sans-serif" font-size="13" lengthAdjust="spacingAndGlyphs" textLength="176" x="509.754" y="185.3638">hasHome &amp;&amp; !workingTime</text><!--link Idle to WalkWork--><path d="M403.609,130.3939 C304.483,131.7909 -50.0379,146.8769 28.754,292.2969 C68.6877,365.9999 108.7046,364.7179 186.754,395.2969 C252.081,420.8909 333.196,430.9109 383.985,434.8189 " fill="none" id="Idle-WalkWork" style="stroke: #A80036; stroke-width: 1.0;"/><polygon fill="#A80036" points="389.108,435.2009,380.4299,430.5435,384.1218,434.8295,379.8358,438.5214,389.108,435.2009" style="stroke: #A80036; stroke-width: 1.0;"/><text fill="#000000" font-family="sans-serif" font-size="13" lengthAdjust="spacingAndGlyphs" textLength="163" x="29.754" y="288.3638">hasWork &amp;&amp; workingTime</text><!--link WalkHome to Idle--><path d="M473.864,222.1159 C455.642,216.0109 436.579,205.9189 425.754,189.2969 C420.13,180.6609 419.383,169.7139 420.551,159.6019 " fill="none" id="WalkHome-Idle" style="stroke: #A80036; stroke-width: 1.0;"/><polygon fill="#A80036" points="421.321,154.4059,416.045,162.7223,420.5881,159.3519,423.9586,163.895,421.321,154.4059" style="stroke: #A80036; stroke-width: 1.0;"/><text fill="#000000" font-family="sans-serif" font-size="13" lengthAdjust="spacingAndGlyphs" textLength="67" x="426.754" y="185.3638">!hasHome</text><!--link WalkHome to AtHome--><path d="M552.611,257.4889 C572.207,272.3709 597.373,291.4809 617.699,306.9169 " fill="none" id="WalkHome-AtHome" style="stroke: #A80036; stroke-width: 1.0;"/><polygon fill="#A80036" points="621.696,309.9519,616.9487,301.3227,617.7144,306.9275,612.1096,307.6932,621.696,309.9519" style="stroke: #A80036; stroke-width: 1.0;"/><text fill="#000000" font-family="sans-serif" font-size="13" lengthAdjust="spacingAndGlyphs" textLength="177" x="596.754" y="288.3638">isAtHome &amp;&amp; !workingTime</text><!--link WalkHome to WalkWork--><path d="M486.155,257.4149 C469.691,270.9239 451.509,289.2759 441.754,310.2969 C427.361,341.3119 427.076,381.2149 429.104,407.9409 " fill="none" id="WalkHome-WalkWork" style="stroke: #A80036; stroke-width: 1.0;"/><polygon fill="#A80036" points="429.538,413.1039,432.7704,403.8006,429.1193,408.1214,424.7985,404.4704,429.538,413.1039" style="stroke: #A80036; stroke-width: 1.0;"/><text fill="#000000" font-family="sans-serif" font-size="13" lengthAdjust="spacingAndGlyphs" textLength="163" x="442.754" y="339.8638">hasWork &amp;&amp; workingTime</text><!--link AtHome to GetSupplies--><path d="M647.608,360.3259 C646.077,372.1439 646.738,385.8419 654.754,395.2969 C676.427,420.8629 766.12,430.9309 826.611,434.8509 " fill="none" id="AtHome-GetSupplies" style="stroke: #A80036; stroke-width: 1.0;"/><polygon fill="#A80036" points="831.641,435.1669,822.9102,430.6091,826.6509,434.8526,822.4074,438.5932,831.641,435.1669" style="stroke: #A80036; stroke-width: 1.0;"/><text fill="#000000" font-family="sans-serif" font-size="13" lengthAdjust="spacingAndGlyphs" textLength="125" x="655.754" y="391.3638">homeNeedSupplies</text><!--link GetSupplies to BuySupplies--><path d="M935.768,441.1479 C969.731,444.9769 1012.956,455.1679 1041.75,481.2969 C1050.32,489.0689 1055.56,500.4929 1058.77,511.2249 " fill="none" id="GetSupplies-BuySupplies" style="stroke: #A80036; stroke-width: 1.0;"/><polygon fill="#A80036" points="1060.1,516.0909,1061.5825,506.3542,1058.7802,511.2682,1053.8662,508.4659,1060.1,516.0909" style="stroke: #A80036; stroke-width: 1.0;"/><text fill="#000000" font-family="sans-serif" font-size="13" lengthAdjust="spacingAndGlyphs" textLength="91" x="1054.75" y="494.3638">atSupplyStore</text><!--link BuySupplies to GetSupplies--><path d="M1011.073,538.2489 C950.303,534.6499 855.884,524.8339 833.754,498.2969 C825.176,488.0109 830.875,476.7829 841.026,466.9089 " fill="none" id="BuySupplies-GetSupplies" style="stroke: #A80036; stroke-width: 1.0;"/><polygon fill="#A80036" points="844.949,463.3369,835.601,466.4376,841.2516,466.7028,840.9865,472.3534,844.949,463.3369" style="stroke: #A80036; stroke-width: 1.0;"/><text fill="#000000" font-family="sans-serif" font-size="13" lengthAdjust="spacingAndGlyphs" textLength="202" x="834.754" y="494.3638">roomForMore &amp;&amp; needSupplies</text><!--link BuySupplies to WalkHome--><path d="M1116.39,526.1369 C1129.89,519.8689 1142.82,510.9399 1150.75,498.2969 C1186.48,441.3769 1113.86,416.7669 1058.75,378.2969 C904.505,270.6119 674.151,242.8579 572.325,235.7369 " fill="none" id="BuySupplies-WalkHome" style="stroke: #A80036; stroke-width: 1.0;"/><polygon fill="#A80036" points="567.279,235.3939,575.9861,239.9968,572.2674,235.734,576.5302,232.0153,567.279,235.3939" style="stroke: #A80036; stroke-width: 1.0;"/><text fill="#000000" font-family="sans-serif" font-size="13" lengthAdjust="spacingAndGlyphs" textLength="198" x="1085.75" y="391.3638">!needSupplies || !roomForMore</text><!--link AtHome to WalkWork--><path d="M616.205,355.2159 C611.421,357.1509 606.528,358.9109 601.754,360.2969 C543.622,377.1689 517.042,344.6059 466.754,378.2969 C456.012,385.4939 448.242,397.3109 442.866,408.4869 " fill="none" id="AtHome-WalkWork" style="stroke: #A80036; stroke-width: 1.0;"/><polygon fill="#A80036" points="440.707,413.2209,448.08,406.691,442.7811,408.6713,440.8007,403.3725,440.707,413.2209" style="stroke: #A80036; stroke-width: 1.0;"/><text fill="#000000" font-family="sans-serif" font-size="13" lengthAdjust="spacingAndGlyphs" textLength="163" x="467.754" y="391.3638">hasWork &amp;&amp; workingTime</text><!--link WalkWork to WalkHome--><path d="M389.174,432.6379 C300.069,421.4139 110.4791,387.8569 172.754,310.2969 C209.314,264.7639 381.124,244.5159 468.882,237.0199 " fill="none" id="WalkWork-WalkHome" style="stroke: #A80036; stroke-width: 1.0;"/><polygon fill="#A80036" points="474.024,236.5869,464.7198,233.3569,469.0417,237.0068,465.3918,241.3287,474.024,236.5869" style="stroke: #A80036; stroke-width: 1.0;"/><text fill="#000000" font-family="sans-serif" font-size="13" lengthAdjust="spacingAndGlyphs" textLength="251" x="173.754" y="339.8638">hasHome &amp;&amp; !workingTime || !hasWork</text><!--link WalkWork to AtWork--><path d="M472.6,463.3169 C492.396,474.7179 516.914,488.0529 539.754,498.2969 C561.686,508.1339 568.59,506.9949 590.754,516.2969 C593.849,517.5959 597.027,518.9949 600.204,520.4419 " fill="none" id="WalkWork-AtWork" style="stroke: #A80036; stroke-width: 1.0;"/><polygon fill="#A80036" points="605.185,522.7479,598.6967,515.3383,600.6472,520.6482,595.3373,522.5988,605.185,522.7479" style="stroke: #A80036; stroke-width: 1.0;"/><text fill="#000000" font-family="sans-serif" font-size="13" lengthAdjust="spacingAndGlyphs" textLength="248" x="540.754" y="494.3638">hasWork &amp;&amp; isAtWork &amp;&amp; workingTime</text><!--link AtWork to Working--><path d="M604.917,566.2329 C583.017,581.2795 554.715,600.7252 532.02,616.3183 " fill="none" id="AtWork-Working" style="stroke: #A80036; stroke-width: 1.0;"/><polygon fill="#A80036" points="527.85,619.1831,537.533,617.3834,531.9711,616.3517,533.0028,610.7897,527.85,619.1831" style="stroke: #A80036; stroke-width: 1.0;"/><text fill="#000000" font-family="sans-serif" font-size="13" lengthAdjust="spacingAndGlyphs" textLength="162" x="576.754" y="597.3638">hasWork &amp;&amp; needToWork</text><!--link AtWork to WalkHome--><path d="M674.462,535.4629 C714.274,529.1229 775.863,516.6119 789.754,498.2969 C819.737,458.7649 811.892,312.2239 778.754,275.2969 C752.057,245.5479 639.934,236.8529 572.594,234.3239 " fill="none" id="AtWork-WalkHome" style="stroke: #A80036; stroke-width: 1.0;"/><polygon fill="#A80036" points="567.425,234.1379,576.2764,238.4568,572.4218,234.3165,576.5621,230.4619,567.425,234.1379" style="stroke: #A80036; stroke-width: 1.0;"/><text fill="#000000" font-family="sans-serif" font-size="13" lengthAdjust="spacingAndGlyphs" textLength="244" x="809.754" y="391.3638">isAtWork &amp;&amp; !workingTime || !hasWork</text><!--link Working to WalkWork--><path d="M471.951,619.0317 C460.915,604.6768 448.312,585.5758 441.754,566.2969 C430.81,534.1229 429.765,494.7859 430.677,468.4949 " fill="none" id="Working-WalkWork" style="stroke: #A80036; stroke-width: 1.0;"/><polygon fill="#A80036" points="430.883,463.4169,426.5211,472.2472,430.6801,468.4128,434.5146,472.5718,430.883,463.4169" style="stroke: #A80036; stroke-width: 1.0;"/><text fill="#000000" font-family="sans-serif" font-size="13" lengthAdjust="spacingAndGlyphs" textLength="152" x="442.754" y="545.8638">jobDone || |workingTime</text><!--link DayAI to Die--><path d="M662,684.239 C662,712.9696 662,737.8226 662,755.6576 " fill="none" id="DayAI-Die" style="stroke: #A80036; stroke-width: 1.0;"/><polygon fill="#A80036" points="662,760.9638,666,751.9638,662,755.9638,658,751.9638,662,760.9638" style="stroke: #A80036; stroke-width: 1.0;"/><text fill="#000000" font-family="sans-serif" font-size="13" lengthAdjust="spacingAndGlyphs" textLength="126" x="663" y="727.0669">isHungry !! isThirsty</text><!--
@startuml
State JobsAI{
  [*] - -> Unemployed 
  Unemployed - -> Unemployed : seachJob:false
  Unemployed - -> HasJob : seachJob:true
  HasJob - -> Unemployed : jobDestroyed
}

State HomeAI {
  [*] - -> Homeless
  Homeless - -> Homeless : searchHome:false
  Homeless - -> HasHome : searchHome:true
  HasHome - -> Homeless : homeDestroyed
}

State DayAI {
  [*] - -> Idle
  Idle - -> WalkHome : hasHome && !workingTime
  Idle - -> WalkWork : hasWork && workingTime
  WalkHome - -> Idle : !hasHome
  WalkHome - -> AtHome : isAtHome && !workingTime
  WalkHome - -> WalkWork : hasWork && workingTime
  AtHome - -> GetSupplies : homeNeedSupplies
  GetSupplies - -> BuySupplies : atSupplyStore
  BuySupplies - -> GetSupplies : roomForMore && needSupplies
  BuySupplies - -> WalkHome : !needSupplies || !roomForMore
  AtHome - -> WalkWork : hasWork && workingTime
  WalkWork - -> WalkHome : hasHome && !workingTime || !hasWork
  WalkWork - -> AtWork : hasWork && isAtWork && workingTime
  AtWork - -> Working : hasWork && needToWork
  AtWork - -> WalkHome : isAtWork && !workingTime || !hasWork
  Working - -> WalkWork : jobDone || |workingTime
}

DayAI - -> Die : isHungry !! isThirsty
@enduml

PlantUML version 1.2017.13(Wed May 10 16:52:33 UTC 2017)
(GPL source distribution)
Java Runtime: Java(TM) SE Runtime Environment
JVM: Java HotSpot(TM) 64-Bit Server VM
Java Version: 1.7.0_25-b15
Operating System: Linux
Default Encoding: UTF-8
Language: en
Country: US
--></g></svg>